<svg id="svg" xmlns="http://www.w3.org/2000/svg" xmlns:xlink="http://www.w3.org/1999/xlink" width="400" height="400" viewBox="0, 0, 400,400"><g id="svgg"><path id="path0" d="M339.491 12.609 C 314.160 16.876,293.258 20.544,293.043 20.759 C 292.828 20.974,298.434 26.940,305.501 34.016 L 318.349 46.883 287.302 77.930 L 256.255 108.977 237.500 90.234 L 218.745 71.492 138.863 151.371 L 58.982 231.250 36.327 231.267 C 11.059 231.286,9.992 231.475,4.922 236.819 C -0.203 242.220,-0.002 239.628,0.017 300.170 C 0.036 361.504,-0.242 358.315,5.569 363.828 C 11.134 369.108,2.400 368.750,125.756 368.750 L 237.500 368.750 237.500 374.244 C 237.500 382.918,241.078 389.032,248.047 392.266 C 252.837 394.488,359.578 394.513,364.453 392.292 C 372.919 388.437,375.223 382.846,374.868 367.027 C 374.620 356.029,374.677 355.521,376.193 355.141 C 383.912 353.210,387.466 345.678,387.466 331.250 C 387.466 316.828,383.970 309.305,376.387 307.407 C 374.623 306.966,374.611 306.872,374.868 295.473 C 375.362 273.463,370.916 268.798,349.414 268.767 L 337.500 268.750 337.500 176.733 L 337.500 84.717 342.195 80.070 L 346.891 75.424 359.745 88.261 C 366.815 95.321,372.775 100.923,372.988 100.710 C 373.349 100.349,389.063 7.269,389.063 5.493 C 389.063 4.266,388.705 4.317,339.491 12.609 M25.000 25.000 L 25.000 43.750 81.250 43.750 L 137.500 43.750 137.500 25.000 L 137.500 6.250 81.250 6.250 L 25.000 6.250 25.000 25.000 M125.000 25.000 L 125.000 31.250 81.250 31.250 L 37.500 31.250 37.500 25.000 L 37.500 18.750 81.250 18.750 L 125.000 18.750 125.000 25.000 M368.883 46.289 C 366.522 60.576,364.460 72.424,364.300 72.617 C 364.141 72.810,360.153 69.123,355.437 64.422 L 346.864 55.875 301.559 101.175 L 256.254 146.476 237.500 127.734 L 218.746 108.992 157.586 170.148 L 96.426 231.304 87.662 231.082 L 78.898 230.859 148.822 160.941 L 218.746 91.023 237.500 109.766 L 256.255 128.509 297.066 87.698 L 337.876 46.887 329.329 38.313 C 324.628 33.598,320.940 29.608,321.133 29.447 C 321.326 29.287,333.086 27.203,347.266 24.818 C 361.445 22.432,373.076 20.443,373.111 20.397 C 373.146 20.350,371.244 32.002,368.883 46.289 M25.000 62.500 L 25.000 68.750 81.250 68.750 L 137.500 68.750 137.500 62.500 L 137.500 56.250 81.250 56.250 L 25.000 56.250 25.000 62.500 M25.000 87.500 L 25.000 93.750 81.250 93.750 L 137.500 93.750 137.500 87.500 L 137.500 81.250 81.250 81.250 L 25.000 81.250 25.000 87.500 M325.000 183.203 L 325.000 268.750 318.750 268.750 L 312.500 268.750 312.500 189.275 L 312.500 109.800 318.536 103.728 C 321.856 100.389,324.669 97.656,324.786 97.656 C 324.904 97.656,325.000 136.152,325.000 183.203 M25.000 112.500 L 25.000 118.750 31.250 118.750 L 37.500 118.750 37.500 112.500 L 37.500 106.250 31.250 106.250 L 25.000 106.250 25.000 112.500 M50.000 112.500 L 50.000 118.750 56.250 118.750 L 62.500 118.750 62.500 112.500 L 62.500 106.250 56.250 106.250 L 50.000 106.250 50.000 112.500 M75.000 112.500 L 75.000 118.750 106.250 118.750 L 137.500 118.750 137.500 112.500 L 137.500 106.250 106.250 106.250 L 75.000 106.250 75.000 112.500 M300.000 195.703 L 300.000 268.750 293.750 268.750 L 287.500 268.750 287.500 201.775 L 287.500 134.800 293.536 128.728 C 296.856 125.389,299.669 122.656,299.786 122.656 C 299.904 122.656,300.000 155.527,300.000 195.703 M222.037 131.799 L 225.000 134.692 225.000 182.971 L 225.000 231.250 218.750 231.250 L 212.500 231.250 212.500 183.041 L 212.500 134.832 215.393 131.869 C 218.902 128.275,218.433 128.280,222.037 131.799 M25.000 137.500 L 25.000 143.750 81.250 143.750 L 137.500 143.750 137.500 137.500 L 137.500 131.250 81.250 131.250 L 25.000 131.250 25.000 137.500 M200.000 189.453 L 200.000 231.250 193.750 231.250 L 187.500 231.250 187.500 195.525 L 187.500 159.800 193.536 153.728 C 196.856 150.389,199.669 147.656,199.786 147.656 C 199.904 147.656,200.000 166.465,200.000 189.453 M250.000 195.489 L 250.000 231.250 243.750 231.250 L 237.500 231.250 237.500 189.276 L 237.500 147.302 243.750 153.516 L 250.000 159.729 250.000 195.489 M275.002 189.648 L 275.004 231.641 268.752 231.386 L 262.500 231.131 262.500 195.466 L 262.500 159.800 268.536 153.728 C 271.856 150.389,274.669 147.656,274.786 147.656 C 274.904 147.656,275.001 166.553,275.002 189.648 M175.000 201.953 L 175.000 231.250 168.750 231.250 L 162.500 231.250 162.500 208.025 L 162.500 184.800 168.536 178.728 C 171.856 175.389,174.669 172.656,174.786 172.656 C 174.904 172.656,175.000 185.840,175.000 201.953 M150.000 214.453 L 150.000 231.250 133.015 231.250 L 116.029 231.250 132.813 214.453 C 142.043 205.215,149.687 197.656,149.798 197.656 C 149.909 197.656,150.000 205.215,150.000 214.453 M98.161 248.036 C 66.866 274.587,67.309 326.616,99.054 352.751 L 103.305 356.250 61.534 356.250 C 15.719 356.250,15.405 356.221,13.588 351.872 C 12.152 348.436,11.965 252.550,13.386 248.472 C 15.018 243.792,14.795 243.814,61.177 243.781 L 103.214 243.750 98.161 248.036 M151.780 244.878 C 184.726 248.499,207.786 286.306,196.418 318.061 C 182.213 357.738,131.852 368.475,103.269 337.920 C 72.273 304.785,92.698 249.067,137.468 244.625 C 143.279 244.049,144.413 244.069,151.780 244.878 M270.622 244.838 C 274.176 246.322,275.000 249.155,275.000 259.882 L 275.000 268.750 263.256 268.750 C 242.058 268.750,237.534 273.146,237.534 293.750 C 237.534 308.178,241.086 315.705,248.807 317.643 C 250.649 318.105,251.361 344.531,249.531 344.531 C 247.710 344.531,241.971 349.474,239.979 352.758 L 237.891 356.201 211.064 356.225 L 184.238 356.250 188.806 352.434 C 220.478 325.969,220.478 274.031,188.806 247.566 L 184.238 243.750 226.129 243.750 C 260.159 243.750,268.507 243.954,270.622 244.838 M40.011 257.918 C 32.042 260.980,25.000 270.657,25.000 278.545 L 25.000 281.250 31.641 281.250 C 38.006 281.250,38.281 281.177,38.284 279.492 C 38.291 275.373,44.123 269.541,48.242 269.534 C 49.927 269.531,50.000 269.256,50.000 262.891 L 50.000 256.250 47.070 256.291 C 45.459 256.313,42.282 257.045,40.011 257.918 M137.500 262.814 C 137.500 269.280,137.468 269.390,135.341 270.131 C 128.594 272.483,124.689 279.262,125.124 287.871 C 125.554 296.394,127.710 299.124,138.399 304.688 C 148.356 309.870,149.222 310.551,149.207 313.182 C 149.172 319.097,140.338 320.407,138.379 314.787 C 137.586 312.514,137.543 312.500,131.291 312.500 L 125.000 312.500 125.000 315.378 C 125.000 321.072,129.932 327.984,135.341 329.869 C 137.468 330.610,137.500 330.720,137.500 337.186 L 137.500 343.750 143.750 343.750 L 150.000 343.750 150.000 337.186 C 150.000 330.720,150.032 330.610,152.159 329.869 C 158.906 327.517,162.811 320.738,162.376 312.129 C 161.946 303.606,159.790 300.876,149.101 295.313 C 139.144 290.130,138.278 289.449,138.293 286.818 C 138.328 280.903,147.162 279.593,149.121 285.213 C 149.914 287.486,149.957 287.500,156.209 287.500 L 162.500 287.500 162.500 284.622 C 162.500 278.928,157.568 272.016,152.159 270.131 C 150.032 269.390,150.000 269.280,150.000 262.814 L 150.000 256.250 143.750 256.250 L 137.500 256.250 137.500 262.814 M262.500 287.500 L 262.500 293.750 268.750 293.750 L 275.000 293.750 275.000 287.500 L 275.000 281.250 281.250 281.250 L 287.500 281.250 287.500 287.500 L 287.500 293.750 293.750 293.750 L 300.000 293.750 300.000 287.500 L 300.000 281.250 306.250 281.250 L 312.500 281.250 312.500 287.500 L 312.500 293.750 318.750 293.750 L 325.000 293.750 325.000 287.500 L 325.000 281.250 331.250 281.250 L 337.500 281.250 337.500 287.500 L 337.500 293.750 343.750 293.750 L 350.000 293.750 350.000 287.500 L 350.000 281.250 352.759 281.250 C 360.014 281.250,362.500 284.441,362.500 293.750 C 362.500 307.065,366.157 306.250,306.392 306.250 C 246.657 306.250,250.000 306.983,250.000 293.892 C 250.000 284.423,252.328 281.356,259.570 281.281 L 262.500 281.250 262.500 287.500 M25.000 321.455 C 25.000 331.746,35.346 342.541,46.210 343.585 L 50.000 343.949 50.000 337.209 C 50.000 330.741,49.929 330.469,48.242 330.466 C 44.123 330.459,38.291 324.627,38.284 320.508 C 38.281 318.823,38.006 318.750,31.641 318.750 L 25.000 318.750 25.000 321.455 M275.000 325.000 L 275.000 331.250 281.250 331.250 L 287.500 331.250 287.500 325.000 L 287.500 318.750 293.750 318.750 L 300.000 318.750 300.000 325.000 L 300.000 331.250 306.250 331.250 L 312.500 331.250 312.500 325.000 L 312.500 318.750 318.750 318.750 L 325.000 318.750 325.000 325.000 L 325.000 331.250 331.250 331.250 L 337.500 331.250 337.500 325.000 L 337.500 318.750 343.750 318.750 L 350.000 318.750 350.000 325.000 L 350.000 331.250 356.250 331.250 L 362.500 331.250 362.500 325.000 L 362.500 318.750 365.259 318.750 C 372.514 318.750,375.000 321.941,375.000 331.250 C 375.000 344.565,378.657 343.750,318.892 343.750 C 259.157 343.750,262.500 344.483,262.500 331.392 C 262.500 321.923,264.828 318.856,272.070 318.781 L 275.000 318.750 275.000 325.000 M262.500 362.500 L 262.500 368.750 268.750 368.750 L 275.000 368.750 275.000 362.500 L 275.000 356.250 281.250 356.250 L 287.500 356.250 287.500 362.500 L 287.500 368.750 293.750 368.750 L 300.000 368.750 300.000 362.500 L 300.000 356.250 306.250 356.250 L 312.500 356.250 312.500 362.500 L 312.500 368.750 318.750 368.750 L 325.000 368.750 325.000 362.500 L 325.000 356.250 331.250 356.250 L 337.500 356.250 337.500 362.500 L 337.500 368.750 343.750 368.750 L 350.000 368.750 350.000 362.500 L 350.000 356.250 352.759 356.250 C 360.014 356.250,362.500 359.441,362.500 368.750 C 362.500 382.065,366.157 381.250,306.392 381.250 C 246.657 381.250,250.000 381.983,250.000 368.892 C 250.000 359.423,252.328 356.356,259.570 356.281 L 262.500 356.250 262.500 362.500 " stroke="none" fill="#000000" fill-rule="evenodd"></path></g></svg>