<svg id="svg" xmlns="http://www.w3.org/2000/svg" xmlns:xlink="http://www.w3.org/1999/xlink" width="400" height="400" viewBox="0, 0, 400,400"><g id="svgg"><path id="path0" d="M7.813 7.813 C 6.029 9.596,5.314 75.698,7.044 78.930 C 8.138 80.975,9.631 81.321,44.141 87.536 C 60.898 90.554,75.242 93.217,76.016 93.452 C 76.790 93.688,80.080 97.870,83.328 102.747 L 89.233 111.613 103.796 117.860 L 118.359 124.108 118.578 133.929 L 118.797 143.750 73.461 143.750 C 29.167 143.750,28.089 143.786,26.563 145.313 C 25.021 146.854,25.000 147.917,25.000 225.000 C 25.000 302.083,25.021 303.146,26.563 304.688 C 28.110 306.235,29.167 306.250,133.203 306.250 C 190.996 306.250,238.281 306.446,238.281 306.686 C 238.281 306.926,237.242 308.421,235.973 310.007 C 234.703 311.593,233.116 314.209,232.447 315.820 L 231.229 318.750 166.034 318.750 C 91.272 318.750,95.799 318.338,88.318 325.818 C 82.019 332.118,78.908 344.533,82.682 348.307 C 84.259 349.884,258.028 393.751,262.693 393.749 C 264.673 393.749,269.376 390.988,283.984 381.250 L 302.734 368.751 323.242 368.751 L 343.750 368.750 343.750 373.437 C 343.750 381.489,342.985 381.250,368.750 381.250 C 389.583 381.250,390.699 381.176,392.188 379.687 C 394.640 377.235,394.640 272.765,392.188 270.313 C 390.699 268.824,389.583 268.750,368.750 268.750 C 342.985 268.750,343.750 268.511,343.750 276.562 L 343.750 281.250 340.625 281.250 L 337.500 281.250 337.500 214.062 C 337.500 147.917,337.476 146.851,335.938 145.312 C 334.407 143.782,333.333 143.750,282.813 143.750 L 231.250 143.750 231.250 123.825 L 231.250 103.900 211.769 64.943 C 199.775 40.961,191.742 25.763,190.870 25.404 C 190.091 25.084,176.978 20.643,161.731 15.536 L 134.009 6.250 71.692 6.250 C 10.417 6.250,9.349 6.276,7.813 7.813 M155.701 27.812 L 182.887 36.874 200.818 72.730 L 218.750 108.587 218.750 126.169 L 218.750 143.750 212.500 143.750 L 206.250 143.750 206.250 129.784 L 206.250 115.819 194.531 101.172 C 188.086 93.116,182.818 86.305,182.826 86.036 C 182.833 85.767,183.882 83.789,185.156 81.641 C 187.296 78.034,187.474 77.150,187.487 70.117 L 187.500 62.500 181.250 62.500 L 175.000 62.500 174.997 67.383 C 174.993 72.230,174.925 72.379,165.625 87.891 C 152.940 109.047,151.875 104.361,175.527 131.443 C 186.130 143.583,195.798 154.670,197.012 156.082 C 201.338 161.112,199.038 167.969,193.023 167.969 C 190.394 167.969,188.764 166.508,166.030 143.765 L 141.836 119.561 119.941 110.149 L 98.047 100.738 91.922 91.441 C 88.553 86.328,85.213 81.917,84.500 81.640 C 83.257 81.157,20.763 69.531,19.407 69.531 C 19.046 69.531,18.750 58.105,18.750 44.141 L 18.750 18.750 73.633 18.750 L 128.515 18.750 155.701 27.812 M184.708 110.492 L 193.827 121.765 193.593 126.538 L 193.359 131.311 183.994 120.573 C 178.843 114.667,173.807 108.859,172.804 107.666 L 170.978 105.496 172.742 102.358 C 175.083 98.192,174.360 97.701,184.708 110.492 M137.974 135.288 C 145.684 142.765,145.629 143.750,137.500 143.750 L 131.250 143.750 131.250 136.719 C 131.250 128.284,130.840 128.371,137.974 135.288 M162.744 160.007 L 166.445 163.765 161.933 165.180 C 156.651 166.836,150.924 169.621,146.344 172.761 L 143.078 175.000 107.476 175.000 C 67.084 175.000,69.371 174.620,68.339 181.504 C 67.324 188.272,63.272 192.324,56.504 193.339 C 49.734 194.354,50.000 193.061,50.000 225.000 C 50.000 256.939,49.734 255.646,56.504 256.661 C 63.272 257.676,67.324 261.728,68.339 268.496 C 69.371 275.380,67.084 275.000,107.476 275.000 L 143.078 275.000 146.555 277.392 C 166.340 291.005,196.160 291.005,215.945 277.392 L 219.422 275.000 255.024 275.000 C 295.416 275.000,293.129 275.380,294.161 268.496 C 295.176 261.728,299.228 257.676,305.996 256.661 C 312.766 255.646,312.500 256.939,312.500 225.000 C 312.500 193.061,312.766 194.354,305.996 193.339 C 299.228 192.324,295.176 188.272,294.161 181.504 C 293.129 174.621,295.410 175.000,255.069 175.000 L 219.513 175.000 215.586 172.461 C 212.065 170.184,211.702 169.690,212.079 167.676 C 212.311 166.440,212.500 163.364,212.500 160.840 L 212.500 156.250 268.750 156.250 L 325.000 156.250 325.000 218.723 L 325.000 281.196 295.508 281.418 L 266.016 281.641 260.930 284.051 C 258.021 285.430,254.344 288.015,252.336 290.092 L 248.828 293.724 143.164 293.737 L 37.500 293.750 37.500 225.000 L 37.500 156.250 98.272 156.250 L 159.043 156.250 162.744 160.007 M182.090 178.311 C 186.504 181.055,195.112 182.212,199.219 180.614 C 204.389 178.603,218.961 190.826,224.821 202.090 C 245.404 241.654,207.213 286.318,165.170 271.853 C 124.369 257.815,120.302 201.219,158.661 181.263 C 169.721 175.509,176.258 174.685,182.090 178.311 M175.000 184.375 C 175.000 187.334,174.874 187.500,172.631 187.500 C 171.328 187.500,168.955 188.045,167.358 188.711 C 149.273 196.254,153.611 231.250,172.631 231.250 L 175.000 231.250 175.000 240.234 C 175.000 246.073,174.708 249.219,174.167 249.219 C 171.119 249.219,168.750 245.239,168.750 240.118 L 168.750 237.500 162.500 237.500 L 156.250 237.500 156.267 243.164 C 156.300 253.915,163.565 262.500,172.631 262.500 C 174.874 262.500,175.000 262.666,175.000 265.625 L 175.000 268.750 181.250 268.750 L 187.500 268.750 187.500 265.625 C 187.500 262.666,187.626 262.500,189.869 262.500 C 208.889 262.500,213.227 227.504,195.142 219.961 C 193.545 219.295,191.172 218.750,189.869 218.750 L 187.500 218.750 187.500 209.766 C 187.500 203.927,187.792 200.781,188.333 200.781 C 191.381 200.781,193.750 204.761,193.750 209.882 L 193.750 212.500 200.000 212.500 L 206.250 212.500 206.250 207.006 C 206.250 196.242,199.043 187.578,190.039 187.517 C 187.601 187.501,187.500 187.376,187.500 184.375 L 187.500 181.250 181.250 181.250 L 175.000 181.250 175.000 184.375 M128.928 190.039 C 115.259 210.521,115.259 239.479,128.928 259.961 L 130.622 262.500 105.608 262.500 L 80.593 262.500 80.094 260.229 C 78.899 254.787,70.213 246.101,64.771 244.906 L 62.500 244.407 62.500 225.000 L 62.500 205.593 64.771 205.094 C 68.187 204.344,74.052 199.839,76.987 195.711 C 78.422 193.693,79.820 191.020,80.094 189.771 L 80.593 187.500 105.608 187.500 L 130.622 187.500 128.928 190.039 M282.406 189.771 C 283.601 195.213,292.287 203.899,297.729 205.094 L 300.000 205.593 300.000 225.000 L 300.000 244.407 297.729 244.906 C 292.287 246.101,283.601 254.787,282.406 260.229 L 281.907 262.500 256.892 262.500 L 231.878 262.500 233.572 259.961 C 247.241 239.479,247.241 210.521,233.572 190.039 L 231.878 187.500 256.892 187.500 L 281.907 187.500 282.406 189.771 M175.000 209.375 C 175.000 218.641,174.410 219.722,171.137 216.450 C 167.015 212.328,168.998 200.781,173.828 200.781 C 174.799 200.781,175.000 202.257,175.000 209.375 M191.363 233.550 C 195.485 237.672,193.502 249.219,188.672 249.219 C 187.701 249.219,187.500 247.743,187.500 240.625 C 187.500 231.359,188.090 230.278,191.363 233.550 M381.250 325.000 L 381.250 368.750 368.750 368.750 L 356.250 368.750 356.250 325.000 L 356.250 281.250 368.750 281.250 L 381.250 281.250 381.250 325.000 M343.750 325.000 L 343.750 356.250 320.505 356.250 L 297.260 356.250 279.210 368.290 L 261.160 380.330 178.210 359.592 C 96.218 339.094,95.273 338.835,96.341 337.227 C 100.311 331.247,99.786 331.290,169.568 331.269 L 231.714 331.250 234.412 335.331 C 238.150 340.986,243.503 343.750,250.717 343.750 C 258.665 343.750,261.740 341.822,274.991 328.535 L 286.310 317.185 281.437 312.312 L 276.564 307.439 265.031 318.954 C 254.493 329.474,253.256 330.469,250.713 330.469 C 245.863 330.469,242.264 323.810,245.106 320.096 C 266.582 292.032,261.896 293.953,309.180 293.836 L 343.750 293.750 343.750 325.000 " stroke="none" fill="#000000" fill-rule="evenodd"></path></g></svg>